<svg xmlns="http://www.w3.org/2000/svg" width="1846" height="1128" viewBox="0 0 1846 1128" fill="none"><path d="M1251.94 904.07C1246.63 904.07 1242.31 899.749 1242.31 894.44V834.7C1242.31 829.392 1246.63 825.07 1251.94 825.07C1257.12 825.07 1261.44 829.388 1261.44 834.7V894.44C1261.44 899.753 1257.12 904.07 1251.94 904.07Z" stroke="#1E84B5" stroke-opacity="0.2"></path><path d="M1212.45 864.571C1212.45 859.259 1216.77 854.941 1221.95 854.941H1281.82C1287.12 854.941 1291.32 859.255 1291.32 864.571C1291.32 869.888 1287.12 874.201 1281.82 874.201H1221.95C1216.77 874.201 1212.45 869.884 1212.45 864.571Z" stroke="#1E84B5" stroke-opacity="0.2"></path><path d="M1815.36 60C1811.17 60 1807.77 56.5909 1807.77 52.4026V7.59745C1807.77 3.40914 1811.17 0 1815.36 0C1819.45 0 1822.86 3.40914 1822.86 7.59745V52.4026C1822.86 56.5909 1819.45 60 1815.36 60Z" fill="#1E84B5" fill-opacity="0.1"></path><path d="M1785.37 29.9998C1785.37 25.8115 1788.78 22.4023 1792.87 22.4023H1837.77C1841.96 22.4023 1845.27 25.8115 1845.27 29.9998C1845.27 34.1881 1841.96 37.5972 1837.77 37.5972H1792.87C1788.78 37.5972 1785.37 34.1881 1785.37 29.9998Z" fill="#1E84B5" fill-opacity="0.1"></path><path d="M133.003 1113C129.513 1113 126.672 1110.16 126.672 1106.67V1069.33C126.672 1065.84 129.513 1063 133.003 1063C136.412 1063 139.253 1065.84 139.253 1069.33V1106.67C139.253 1110.16 136.412 1113 133.003 1113Z" fill="#1E84B5" fill-opacity="0.1"></path><path d="M108 1088C108 1084.51 110.841 1081.67 114.25 1081.67H151.669C155.159 1081.67 157.919 1084.51 157.919 1088C157.919 1091.49 155.159 1094.33 151.669 1094.33H114.25C110.841 1094.33 108 1091.49 108 1088Z" fill="#1E84B5" fill-opacity="0.1"></path><path d="M1768 1108.45C1751.79 1110.27 1750.37 1111.79 1748.55 1128C1746.73 1111.79 1745.21 1110.27 1729 1108.45C1745.21 1106.63 1746.73 1105.21 1748.55 1089C1750.37 1105.21 1751.79 1106.63 1768 1108.45Z" fill="#1E84B5"></path><path d="M50 109.935C29.2208 112.273 27.4026 114.221 25.0649 135C22.7273 114.221 20.7792 112.273 0 109.935C20.7792 107.597 22.7273 105.779 25.0649 85C27.4026 105.779 29.2208 107.597 50 109.935Z" fill="#EFF8FF"></path><path d="M37.5391 108.458C39.8111 109.057 42.5329 109.511 45.8056 109.936C42.5323 110.364 39.81 110.825 37.5373 111.433C34.3618 112.281 32.0195 113.425 30.2616 115.2C28.5041 116.975 27.3772 119.333 26.5415 122.519C25.9434 124.8 25.4888 127.528 25.064 130.804C24.6361 127.527 24.1747 124.799 23.5676 122.518C22.7193 119.33 21.5756 116.972 19.8016 115.198C18.0276 113.424 15.6698 112.281 12.4825 111.432C10.2013 110.825 7.47253 110.364 4.19626 109.936C7.47193 109.511 10.2002 109.057 12.4807 108.458C15.6671 107.623 18.0253 106.496 19.7999 104.738C21.5749 102.98 22.719 100.638 23.5675 97.4627C24.1747 95.19 24.6361 92.4677 25.064 89.1944C25.4888 92.4671 25.9434 95.1889 26.5416 97.4609C27.3775 100.636 28.5048 102.978 30.2633 104.737C32.0219 106.495 34.3645 107.623 37.5391 108.458Z" stroke="#1E84B5" stroke-opacity="0.2"></path><path d="M120.245 870.947C126.4 872.568 134.053 873.718 143.639 874.855C134.052 875.996 126.398 877.163 120.244 878.808C113.188 880.693 108.058 883.216 104.227 887.085C100.396 890.953 97.91 896.119 96.0527 903.2C94.4325 909.378 93.282 917.048 92.145 926.638C91.0041 917.048 89.8366 909.377 88.1923 903.199C86.3073 896.116 83.7847 890.95 79.9172 887.083C76.0497 883.215 70.8838 880.693 63.8013 878.808C57.623 877.163 49.9525 875.996 40.3616 874.855C49.9519 873.718 57.6219 872.568 63.7996 870.947C70.8811 869.09 76.0474 866.604 79.9155 862.773C83.784 858.942 86.307 853.812 88.1921 846.756C89.8366 840.602 91.004 832.948 92.145 823.361C93.282 832.947 94.4325 840.6 96.0528 846.755C97.9103 853.809 100.396 858.94 104.228 862.772C108.06 866.604 113.191 869.09 120.245 870.947Z" fill="#EFF8FF" stroke="#1E84B5"></path></svg>